<svg width="80" height="80" viewBox="0 0 80 80" fill="none" xmlns="http://www.w3.org/2000/svg">
<circle cx="40" cy="40" r="40" fill="#35AFBF"/>
<g clip-path="url(#clip0_206_19)">
<path d="M47.9102 37.3633H49.668V40.8789H47.9102V37.3633Z" fill="white"/>
<path d="M48.7891 32.0898C49.2745 32.0898 49.668 31.6963 49.668 31.2109C49.668 30.7255 49.2745 30.332 48.7891 30.332C48.3037 30.332 47.9102 30.7255 47.9102 31.2109C47.9102 31.6963 48.3037 32.0898 48.7891 32.0898Z" fill="white"/>
<path d="M54.1211 25H25.8789C25.3931 25 25 25.3931 25 25.8789V40C25 40.4858 25.3931 40.8789 25.8789 40.8789H46.1523V36.4844C46.1523 35.9986 46.5454 35.6055 47.0312 35.6055H50.5469C51.0327 35.6055 51.4258 35.9986 51.4258 36.4844V40.8789H54.1211C54.6069 40.8789 55 40.4858 55 40V25.8789C55 25.3931 54.6069 25 54.1211 25ZM43.5156 32.0898H41.7578C39.334 32.0898 37.3633 34.0613 37.3633 36.4844C37.3633 36.9702 36.9702 37.3633 36.4844 37.3633C35.9986 37.3633 35.6055 36.9702 35.6055 36.4844C35.6055 35.0304 34.4227 33.8477 32.9688 33.8477C31.5148 33.8477 30.332 35.0304 30.332 36.4844C30.332 36.9702 29.9389 37.3633 29.4531 37.3633C28.9673 37.3633 28.5742 36.9702 28.5742 36.4844C28.5742 34.0613 30.5449 32.0898 32.9688 32.0898C34.3177 32.0898 35.5111 32.7135 36.3177 33.6727C37.3432 31.6984 39.3839 30.332 41.7578 30.332H43.5156C44.0014 30.332 44.3945 30.7251 44.3945 31.2109C44.3945 31.6967 44.0014 32.0898 43.5156 32.0898ZM48.7891 33.8477C47.3351 33.8477 46.1523 32.6649 46.1523 31.2109C46.1523 29.757 47.3351 28.5742 48.7891 28.5742C50.243 28.5742 51.4258 29.757 51.4258 31.2109C51.4258 32.6649 50.243 33.8477 48.7891 33.8477Z" fill="white"/>
<path d="M25.8789 53.2422H47.9102V54.1211C47.9102 54.6069 48.3033 55 48.7891 55C49.2749 55 49.668 54.6069 49.668 54.1211V47.3952L51.1683 45.8949C51.3331 45.7301 51.4258 45.5069 51.4258 45.2734V43.5156C51.4258 43.0298 51.0327 42.6367 50.5469 42.6367H47.0312C46.5454 42.6367 46.1523 43.0298 46.1523 43.5156V45.2734C46.1523 45.5069 46.245 45.7301 46.4099 45.8948L47.9102 47.3952V47.9102H25.8789C25.3931 47.9102 25 48.3033 25 48.7891V52.3633C25 52.8491 25.3931 53.2422 25.8789 53.2422Z" fill="white"/>
<path d="M54.1211 47.9102H51.4258V53.2422H54.1211C54.6069 53.2422 55 52.8491 55 52.3633V48.7891C55 48.3033 54.6069 47.9102 54.1211 47.9102Z" fill="white"/>
</g>
<defs>
<clipPath id="clip0_206_19">
<rect width="30" height="30" fill="white" transform="translate(25 25)"/>
</clipPath>
</defs>
</svg>
