<svg width="80" height="80" viewBox="0 0 80 80" fill="none" xmlns="http://www.w3.org/2000/svg">
<circle cx="40" cy="40" r="40" fill="#35AFBF"/>
<path d="M25 25.877H28.6328V34.959H25V25.877Z" fill="white"/>
<path d="M52.3672 44.041H56V53.123H52.3672V44.041Z" fill="white"/>
<path d="M38.6836 34.959H42.3164V44.041H38.6836V34.959Z" fill="white"/>
<path d="M27.7246 42.2246H36.8672V36.7754H27.7246C26.2222 36.7754 25 37.9976 25 39.5C25 41.0024 26.2222 42.2246 27.7246 42.2246Z" fill="white"/>
<path d="M53.2754 36.7754H44.1328V42.2246H53.2754C54.7778 42.2246 56 41.0024 56 39.5C56 37.9976 54.7778 36.7754 53.2754 36.7754Z" fill="white"/>
<path d="M53.2754 27.6934H30.4492V33.1426H53.2754C54.7778 33.1426 56 31.9204 56 30.418C56 28.9156 54.7778 27.6934 53.2754 27.6934Z" fill="white"/>
<path d="M27.7246 51.3066H50.5508V45.8574H27.7246C26.2222 45.8574 25 47.0796 25 48.582C25 50.0844 26.2222 51.3066 27.7246 51.3066Z" fill="white"/>
</svg>
