<svg width="80" height="80" viewBox="0 0 80 80" fill="none" xmlns="http://www.w3.org/2000/svg">
<circle cx="40" cy="40" r="40" fill="#35AFBF"/>
<g clip-path="url(#clip0_206_23)">
<path d="M38.8832 28.8748C33.6139 29.4003 29.4113 33.6029 28.8857 38.8722H33.2981V41.1062H28.8857C29.4113 46.3755 33.6139 50.5781 38.8832 51.1037V46.6913H41.1172V51.1037C46.3865 50.5781 50.5891 46.3755 51.1147 41.1062H46.7023V38.8722H51.1147C50.5891 33.6029 46.3865 29.4003 41.1172 28.8748V33.2871H38.8832V28.8748ZM41.1172 35.5212V39.3915L43.9708 41.2939L42.7316 43.1527L38.8831 40.587V35.5212H41.1172Z" fill="white"/>
<path d="M55.2167 28.6282L58.3139 28.8171L58.4499 26.5872L51.5974 26.1693L51.1721 32.4621L53.4011 32.6127L53.5671 30.1566C55.6346 33.0017 56.7548 36.422 56.7548 39.9894C56.7548 49.2282 49.2384 56.7446 39.9995 56.7446C30.7607 56.7446 23.2443 49.2282 23.2443 39.9894C23.2443 30.7505 30.7607 23.2341 39.9995 23.2341V21C29.5047 21 21.0103 29.493 21.0103 39.9893C21.0103 56.7541 41.4292 65.4147 53.4269 53.4166C57.0135 49.83 58.9888 45.0614 58.9888 39.9893C58.9887 35.8551 57.6619 31.8951 55.2167 28.6282Z" fill="white"/>
</g>
<defs>
<clipPath id="clip0_206_23">
<rect width="38" height="38" fill="white" transform="translate(21 21)"/>
</clipPath>
</defs>
</svg>
