<svg width="80" height="80" viewBox="0 0 80 80" fill="none" xmlns="http://www.w3.org/2000/svg">
<circle cx="40" cy="40" r="40" fill="#35AFBF"/>
<path d="M48.2239 45.1889C47.0137 46.851 45.0533 47.9336 42.8447 47.9336H39.7455C38.675 47.9336 37.7633 47.2539 37.4181 46.3026C36.9919 46.1755 36.574 46.0105 36.1663 45.8078C35.3027 45.3788 34.5186 44.7975 33.8283 44.0774C29.351 45.061 26 49.0505 26 53.8234V54.4472C26 55.3048 26.6952 56 27.5528 56H51.6449C52.5025 56 53.1977 55.3048 53.1977 54.4472V53.8234C53.1977 50.1363 51.1978 46.9166 48.2239 45.1889Z" fill="white"/>
<path d="M32.1783 38.4349C32.8457 38.4349 33.4266 38.065 33.7275 37.5192C33.7354 37.5408 33.7435 37.5622 33.7516 37.5837C33.754 37.5902 33.7564 37.5966 33.7588 37.6031C34.4648 39.4614 35.8385 41.0193 37.6499 41.6999C38.088 41.0038 38.8627 40.5409 39.746 40.5409H42.8451C43.1542 40.5409 43.4419 40.4537 43.6941 40.3127C44.1177 40.0758 44.4987 39.4749 44.6954 39.1564C45.0102 38.6467 45.2541 38.1068 45.4703 37.5182C45.5918 37.7389 45.759 37.9309 45.9592 38.0814V38.8413C45.9592 40.5584 44.5622 41.9555 42.845 41.9555H39.7459C39.16 41.9555 38.685 42.4305 38.685 43.0164C38.685 43.6023 39.16 44.0772 39.7459 44.0772H42.845C45.7321 44.0772 48.0809 41.7284 48.0809 38.8413V38.0814C48.5104 37.7587 48.7882 37.2453 48.7882 36.6668V33.4679V32.2413C48.7882 31.6509 48.4987 31.1286 48.0541 30.8075C47.7094 26.4447 44.0491 23 39.5992 23C35.1492 23 31.489 26.4447 31.1442 30.8074C30.6997 31.1286 30.4102 31.6509 30.4102 32.2412V36.6667C30.4102 37.646 31.2057 38.4349 32.1783 38.4349ZM39.5992 25.1218C42.8933 25.1218 45.6104 27.6392 45.928 30.8513C45.7195 31.0153 45.5487 31.2249 45.431 31.4654C44.43 28.8537 42.1954 27.0354 39.5991 27.0354C36.9469 27.0354 34.7481 28.9162 33.7711 31.455C33.7698 31.4584 33.7685 31.4619 33.7672 31.4655C33.6495 31.225 33.4787 31.0153 33.2703 30.8513C33.588 27.6392 36.305 25.1218 39.5992 25.1218Z" fill="white"/>
</svg>
