<svg width="80" height="80" viewBox="0 0 80 80" fill="none" xmlns="http://www.w3.org/2000/svg">
<circle cx="40" cy="40" r="40" fill="#35AFBF"/>
<g clip-path="url(#clip0_206_21)">
<path d="M42.2069 50.5164V48.2478H24V50.5256C24 52.5884 25.6669 54.2931 27.7299 54.2931H44.0419C43.8855 54.1508 43.7346 54.0261 43.5921 53.8833C42.7011 52.9896 42.2027 51.7783 42.2069 50.5164Z" fill="white"/>
<path d="M36.8908 36.7634L39.5328 38.5773L42.1851 36.7634C42.9105 36.2687 43.4867 35.1521 43.4867 34.2742V30.5259L39.5395 28.5737L35.5923 30.5209V34.2742C35.5923 35.1518 36.1651 36.2687 36.8908 36.7634ZM37.4856 33.2207C37.6809 33.0274 37.9962 33.0288 38.1896 33.2244L38.983 34.0256L40.8927 32.1162C41.0872 31.9217 41.4025 31.9217 41.597 32.1164C41.7915 32.3109 41.7912 32.6262 41.5967 32.8207L39.3333 35.0852C39.24 35.1788 39.1136 35.2321 38.9814 35.2327H38.9802C38.8474 35.2318 38.7205 35.1782 38.6277 35.0832L37.482 33.9258C37.2886 33.73 37.2903 33.4147 37.4856 33.2207Z" fill="white"/>
<path d="M54.3611 24.7068H54.3453C52.8826 24.7068 51.666 25.9289 51.666 27.3924V31.9611H57.0001V27.3835C57.0067 25.9172 55.8274 24.721 54.3611 24.7068Z" fill="white"/>
<path d="M31.6432 24.7068C30.26 24.7068 29.1343 25.8175 29.1343 27.1799L28.9873 47.252H42.7047C42.9839 47.2632 43.2042 47.4935 43.2026 47.7732V50.5164C43.1976 52.5903 44.8694 54.278 46.9431 54.293H46.9556C49.0217 54.278 50.6844 52.5911 50.6702 50.525V27.3933C50.6702 26.3467 51.1411 25.418 51.8487 24.7068L31.6432 24.7068ZM34.5969 30.2103C34.5906 30.0231 34.6931 29.8489 34.86 29.7633L39.3184 27.5722C39.4554 27.5044 39.616 27.5044 39.7529 27.5722L44.2194 29.7694C44.3863 29.855 44.4888 30.0289 44.4827 30.2164V34.2742C44.4827 35.4818 43.7457 36.9057 42.7475 37.586L39.8227 39.5916C39.7407 39.648 39.6435 39.6782 39.544 39.6782C39.4448 39.6782 39.3481 39.6482 39.2667 39.5916L36.3333 37.586C35.3357 36.9054 34.5969 35.4816 34.5969 34.2742V30.2103ZM46.6163 44.9762H32.9612C32.6861 44.9762 32.4633 44.7534 32.4633 44.4783C32.4633 44.2033 32.6861 43.9805 32.9612 43.9805H46.6163C46.8914 43.9805 47.1142 44.2033 47.1142 44.4783C47.1142 44.7534 46.8914 44.9762 46.6163 44.9762ZM46.6163 42.3447H32.9612C32.6861 42.3447 32.4633 42.1219 32.4633 41.8469C32.4633 41.5718 32.6861 41.349 32.9612 41.349H46.6163C46.8914 41.349 47.1142 41.5718 47.1142 41.8469C47.1142 42.1219 46.8914 42.3447 46.6163 42.3447Z" fill="white"/>
</g>
<defs>
<clipPath id="clip0_206_21">
<rect width="33" height="33" fill="white" transform="translate(24 23)"/>
</clipPath>
</defs>
</svg>
