<svg width="80" height="80" viewBox="0 0 80 80" fill="none" xmlns="http://www.w3.org/2000/svg">
<circle cx="40" cy="40" r="40" fill="#35AFBF"/>
<path d="M50.3213 52.3854C50.3213 52.7542 50.6203 53.0532 50.9891 53.0532H56.332C56.5091 53.0532 56.679 52.9828 56.8043 52.8576C56.9295 52.7324 56.9999 52.5625 56.9999 52.3853V51.8389H50.3213V52.3854Z" fill="white"/>
<path d="M56.332 40.9106H50.9891C50.6203 40.9106 50.3213 41.2097 50.3213 41.5785V42.125H56.9998V41.5785C56.9998 41.2097 56.7008 40.9106 56.332 40.9106Z" fill="white"/>
<path d="M36.9639 45.1607H43.6424H49.1067V43.3394H36.9639V45.1607Z" fill="white"/>
<path d="M50.9284 28.7677C50.9284 27.7618 50.113 26.9463 49.107 26.9463H30.8927C29.8868 26.9463 29.0713 27.7618 29.0713 28.7677V32.4106H34.2235C35.7364 32.4123 36.9625 33.6383 36.9641 35.1512V42.1249H49.107V41.5784C49.1104 40.565 49.9155 39.7363 50.9284 39.7036V28.7677Z" fill="white"/>
<path d="M43.0353 46.375H36.9639V48.8035H43.0353V46.375Z" fill="white"/>
<path d="M56.9998 43.3394H50.3213V50.625H56.9998V43.3394Z" fill="white"/>
<path d="M23 51.527C23.0007 52.3697 23.6837 53.0527 24.5263 53.0533H34.2237C35.0663 53.0527 35.7493 52.3697 35.75 51.527V51.2319H23V51.527Z" fill="white"/>
<path d="M23 50.0178H35.75V49.4106V45.7678V36.6606H23V50.0178Z" fill="white"/>
<path d="M34.2237 33.625H24.5263C23.6837 33.6257 23.0007 34.3087 23 35.1513V35.4464H35.75V35.1513C35.7493 34.3087 35.0663 33.6257 34.2237 33.625Z" fill="white"/>
<path d="M46.071 50.0176H36.9639V51.2319H46.6782V50.6247C46.6781 50.2894 46.4063 50.0176 46.071 50.0176Z" fill="white"/>
</svg>
