<svg width="103" height="38" viewBox="0 0 103 38" fill="none" xmlns="http://www.w3.org/2000/svg">
<path d="M55.884 12.14V26H53.28V18.776L53.406 14.723H53.364L49.521 26H47.148L43.326 14.723H43.284L43.431 18.776V26H40.806V12.14H45.006L47.505 19.7L48.387 22.829H48.429L49.332 19.721L51.81 12.14H55.884ZM65.0976 19.301C65.0976 18.699 64.9226 18.23 64.5726 17.894C64.2366 17.558 63.7886 17.39 63.2286 17.39C62.7106 17.39 62.2556 17.523 61.8636 17.789C61.4716 18.055 61.1846 18.496 61.0026 19.112L58.5456 18.356C58.7836 17.432 59.3016 16.69 60.0996 16.13C60.9116 15.57 61.9966 15.29 63.3546 15.29C64.7266 15.29 65.8326 15.619 66.6726 16.277C67.5266 16.921 67.9536 17.887 67.9536 19.175V23.438C67.9536 23.97 68.2056 24.236 68.7096 24.236C68.9476 24.236 69.1716 24.201 69.3816 24.131L69.2136 25.916C68.8496 26.098 68.3946 26.189 67.8486 26.189C67.2466 26.189 66.7216 26.063 66.2736 25.811C65.8396 25.559 65.5456 25.181 65.3916 24.677C65.0556 25.181 64.5726 25.566 63.9426 25.832C63.3266 26.084 62.6896 26.21 62.0316 26.21C60.9676 26.21 60.1206 25.972 59.4906 25.496C58.8746 25.006 58.5666 24.299 58.5666 23.375C58.5666 22.591 58.8186 21.954 59.3226 21.464C59.8266 20.96 60.5476 20.617 61.4856 20.435L65.0976 19.7V19.301ZM61.4436 23.102C61.4436 23.452 61.5696 23.718 61.8216 23.9C62.0876 24.082 62.4026 24.173 62.7666 24.173C63.1726 24.173 63.5506 24.11 63.9006 23.984C64.2506 23.858 64.5376 23.648 64.7616 23.354C64.9856 23.046 65.0976 22.64 65.0976 22.136V21.485L62.8926 21.926C62.4166 22.024 62.0526 22.157 61.8006 22.325C61.5626 22.479 61.4436 22.738 61.4436 23.102ZM74.0482 10.901V20.288L78.5842 15.5H81.8602L77.9122 19.616L82.1122 26H78.8572L75.9592 21.359L74.0482 23.396V26H71.1712V10.901H74.0482ZM88.1633 26.21C86.5113 26.21 85.1883 25.734 84.1943 24.782C83.2003 23.816 82.7033 22.472 82.7033 20.75C82.7033 19.602 82.9273 18.622 83.3753 17.81C83.8233 16.998 84.4463 16.375 85.2443 15.941C86.0563 15.507 86.9803 15.29 88.0163 15.29C89.0803 15.29 89.9833 15.507 90.7253 15.941C91.4673 16.361 92.0343 16.942 92.4263 17.684C92.8183 18.412 93.0143 19.245 93.0143 20.183C93.0143 20.463 93.0073 20.729 92.9933 20.981C92.9793 21.233 92.9583 21.457 92.9303 21.653H85.5173C85.6293 22.465 85.9093 23.074 86.3573 23.48C86.8193 23.872 87.4143 24.068 88.1423 24.068C88.7583 24.068 89.2553 23.949 89.6333 23.711C90.0113 23.473 90.3053 23.144 90.5153 22.724L92.8043 23.606C92.4683 24.432 91.8803 25.076 91.0403 25.538C90.2003 25.986 89.2413 26.21 88.1633 26.21ZM87.9953 17.411C86.6373 17.411 85.8183 18.16 85.5383 19.658H90.2633C90.1793 18.93 89.9413 18.377 89.5493 17.999C89.1713 17.607 88.6533 17.411 87.9953 17.411ZM95.4524 26V15.5H97.9514L98.1404 17.558C98.4064 16.844 98.8054 16.291 99.3374 15.899C99.8834 15.493 100.569 15.29 101.395 15.29C101.885 15.29 102.263 15.367 102.529 15.521L102.193 17.936C102.053 17.894 101.878 17.859 101.668 17.831C101.472 17.789 101.213 17.768 100.891 17.768C100.457 17.768 100.044 17.873 99.6524 18.083C99.2744 18.279 98.9594 18.587 98.7074 19.007C98.4554 19.413 98.3294 19.931 98.3294 20.561V26H95.4524Z" fill="#252626"/>
<path d="M27.7438 20.9904C30.886 21.8794 32.7857 25.2704 30.7581 27.8302C29.8184 29.0166 28.6977 30.0628 27.4267 30.9259C24.5076 32.9083 20.983 33.7981 17.4726 33.4388C13.9623 33.0796 10.691 31.4943 8.23389 28.9617C5.77678 26.4291 4.29119 23.1113 4.03831 19.5917C3.78543 16.0721 4.78146 12.5761 6.85127 9.7182C8.92109 6.86035 11.9322 4.82368 15.3551 3.96629C18.778 3.1089 22.3936 3.48569 25.5662 5.03041C26.9475 5.70295 28.2063 6.57813 29.3059 7.61803C31.6786 9.86172 30.2832 13.4895 27.3004 14.8185L23.925 16.3224C22.8063 16.8208 21.4905 16.1987 20.3894 15.6626C19.718 15.3357 18.9528 15.256 18.2284 15.4374C17.504 15.6189 16.8668 16.0499 16.4287 16.6547C15.9907 17.2595 15.7799 17.9994 15.8334 18.7443C15.8869 19.4891 16.2013 20.1913 16.7213 20.7273C17.2413 21.2632 17.9337 21.5987 18.6766 21.6748C19.4195 21.7508 20.1654 21.5625 20.7832 21.1429C21.7963 20.4549 23.0097 19.6512 24.1881 19.9845L27.7438 20.9904Z" fill="#35AFBF"/>
</svg>
